<svg width="30" height="30" viewBox="0 0 30 30" fill="none" xmlns="http://www.w3.org/2000/svg">
<path fill-rule="evenodd" clip-rule="evenodd" d="M16.5882 1.83594C19.4885 1.83604 21.8401 4.18836 21.8401 7.08984C21.8401 8.79047 21.0313 10.3016 19.7786 11.2617H20.5179C22.5433 11.2617 24.3262 12.8713 24.8978 15.2148L25.4739 17.5742C26.334 21.1011 24.1413 24.6348 21.0931 24.6348H12.0882C9.14392 24.6348 6.96864 21.3236 7.64287 17.8672L8.10381 15.5068C8.58917 13.0196 10.4294 11.2618 12.5481 11.2617H13.3978C12.145 10.3016 11.3363 8.79058 11.3362 7.08984C11.3362 4.18829 13.6877 1.83594 16.5882 1.83594Z" fill="#5DDBFF" fill-opacity="0.4"/>
<path fill-rule="evenodd" clip-rule="evenodd" d="M11.806 4.58594C14.7065 4.58594 17.0579 6.94999 17.058 9.86621C17.058 11.5762 16.249 13.0955 14.9955 14.0605H15.7357C17.7611 14.0605 19.545 15.6779 20.1166 18.0332L20.6918 20.4053C21.5519 23.9499 19.36 27.5018 16.3119 27.502H7.30603C4.36176 27.5019 2.18734 24.1732 2.8617 20.6992L3.32166 18.3271C3.80701 15.8272 5.64821 14.0605 7.76697 14.0605H8.61756C7.36391 13.0956 6.55506 11.5763 6.55506 9.86621C6.55511 6.95008 8.90574 4.58609 11.806 4.58594Z" fill="#5DDBFF"/>
</svg>
