<svg width="98" height="36" viewBox="0 0 98 36" fill="none" xmlns="http://www.w3.org/2000/svg">
<path d="M21.4394 17.2949C21.5088 17.2949 21.5759 17.3147 21.6341 17.3512C21.6577 17.3659 21.6796 17.3829 21.6996 17.4027C22.0823 17.7828 23.4183 19.1105 24.7571 20.459C24.8308 20.5332 24.9044 20.6076 24.978 20.6818C25.0158 20.7197 25.0534 20.7577 25.0909 20.7956C25.1643 20.8697 25.2378 20.9439 25.3107 21.0176L25.3118 21.0188C25.4953 21.204 25.676 21.3874 25.8517 21.5661C26.4849 22.2103 27.0532 22.7952 27.4376 23.2051C27.5596 23.3353 27.6813 23.4626 27.8026 23.5884C27.8835 23.6723 27.9641 23.7556 28.0442 23.8384C28.0854 23.8811 28.1263 23.9237 28.1672 23.9662C28.2456 24.048 28.3239 24.1297 28.4012 24.212C28.4401 24.2536 28.4794 24.2954 28.5182 24.3372C28.5754 24.3991 28.6322 24.4616 28.6888 24.5243C28.729 24.5688 28.7686 24.6136 28.8084 24.6587C28.8435 24.6988 28.8787 24.7391 28.9136 24.78C28.9538 24.827 28.9935 24.8743 29.033 24.922C29.0794 24.9783 29.1256 25.035 29.1711 25.0925C29.1877 25.1136 29.2043 25.1347 29.2207 25.1559C29.2464 25.189 29.2722 25.222 29.2975 25.2555C29.3223 25.2886 29.3466 25.3219 29.3704 25.3556C29.3769 25.3649 29.3834 25.3742 29.3899 25.3835C29.4094 25.4117 29.4286 25.4401 29.4476 25.4688C29.4519 25.4753 29.4563 25.4817 29.4607 25.4883C29.4828 25.5221 29.5042 25.5564 29.5253 25.5909C29.5314 25.6004 29.5371 25.6102 29.5429 25.6199C29.559 25.6469 29.5747 25.6738 29.5904 25.701C29.5963 25.711 29.6021 25.7214 29.6079 25.7317C29.6271 25.7661 29.646 25.8009 29.6643 25.8358C29.6691 25.8454 29.6738 25.8552 29.6789 25.8647C29.6929 25.8916 29.7063 25.9189 29.7195 25.946C29.7258 25.959 29.7321 25.9716 29.7382 25.9846C29.7528 26.0157 29.7672 26.0473 29.7811 26.0789C29.7862 26.0904 29.7911 26.1019 29.7961 26.1134C29.8088 26.1428 29.8211 26.1721 29.8329 26.2018C29.8387 26.2162 29.8445 26.2309 29.8502 26.2455C29.8603 26.271 29.87 26.2967 29.8794 26.3226C29.884 26.3353 29.8888 26.3481 29.8934 26.3608C29.9056 26.3958 29.9176 26.4311 29.9289 26.4666C29.9337 26.482 29.9386 26.4974 29.9434 26.5128C29.9511 26.537 29.9583 26.5613 29.9653 26.5857C29.9698 26.6009 29.9742 26.6164 29.9785 26.6318C29.9795 26.6347 29.9805 26.6378 29.9812 26.6407C29.9897 26.6721 29.9978 26.7036 30.0055 26.7351C30.0084 26.7476 30.0116 26.76 30.0144 26.7728C30.0224 26.8065 30.0301 26.8406 30.0371 26.8748C30.039 26.8834 30.0406 26.8922 30.0423 26.9008C30.0493 26.9357 30.0557 26.9708 30.0618 27.006C30.0634 27.0158 30.0652 27.0253 30.0669 27.0351C30.0734 27.0737 30.0791 27.1126 30.0842 27.1518C30.0852 27.1602 30.0864 27.1688 30.0873 27.1771C30.0927 27.2184 30.0972 27.2598 30.1011 27.3014C30.1083 27.3814 30.1136 27.4642 30.1162 27.5486C30.1181 27.6039 30.1187 27.6599 30.1182 27.7167L30.1184 27.7184C30.1112 28.4953 29.8774 29.415 29.0853 30.263C28.3968 31.0002 27.4219 31.3888 26.4224 31.3888H12.4143C12.3843 31.3888 12.3556 31.3835 12.3287 31.3743C12.2943 31.3623 12.2628 31.3431 12.2363 31.3187C12.2301 31.3128 12.224 31.3066 12.2182 31.3002C12.1807 31.2587 12.1559 31.205 12.1499 31.1459C12.1489 31.1368 12.1484 31.1274 12.1484 31.1182V26.8356C12.1484 26.8168 12.1501 26.7987 12.1538 26.7811C12.1554 26.7723 12.1576 26.7637 12.1602 26.7551C12.1686 26.7267 12.1821 26.7007 12.1987 26.6773C12.2471 26.6092 12.3253 26.5649 12.4141 26.5649H22.9215C22.941 26.5649 22.9588 26.5615 22.9754 26.5557C23.0791 26.5185 23.121 26.3775 23.0353 26.2889L14.4327 17.3869C14.3997 17.3527 14.4236 17.2949 14.4707 17.2949H21.4394Z" fill="url(#paint0_linear_466_40)"/>
<path d="M63.6076 11.4492C64.7143 11.4492 65.3916 11.7897 65.8063 12.2045C66.4511 12.8498 66.4603 13.6753 66.4604 13.6801V18.0116L66.4606 22.6025C66.4717 23.2347 66.1504 23.8569 65.6682 24.3277C65.6215 24.3735 65.5733 24.4176 65.5237 24.4602C65.4908 24.4886 65.457 24.5165 65.4229 24.5434C65.3886 24.5705 65.3538 24.5967 65.3187 24.6222C64.8782 24.9408 64.3584 25.1403 63.8489 25.1467C63.8284 25.1471 63.808 25.1471 63.7877 25.1467L63.7868 25.1469H55.4161V31.1162C55.4161 31.1351 55.4142 31.1532 55.4108 31.1708C55.4074 31.1884 55.4021 31.2053 55.3954 31.2215C55.3696 31.2834 55.3218 31.3334 55.2621 31.3615C55.2282 31.3775 55.1904 31.3867 55.1504 31.3867H50.4885C50.4486 31.3867 50.4108 31.3777 50.3768 31.3615C50.3172 31.3334 50.2693 31.2834 50.2436 31.2215C50.2368 31.2053 50.2316 31.1884 50.2281 31.1708C50.2248 31.1532 50.2228 31.1348 50.2228 31.1162V17.2926H55.1507C55.2578 17.2926 55.3499 17.3572 55.392 17.4501C55.4077 17.4847 55.4166 17.5229 55.4166 17.5632V20.202C55.4166 20.2916 55.4881 20.3643 55.5762 20.3644H60.9021C60.9901 20.3644 61.0616 20.2916 61.0616 20.202V16.4894C61.0616 16.4839 61.0614 16.4782 61.0609 16.4729C61.06 16.4621 61.0578 16.4516 61.0547 16.4413C61.0441 16.4066 61.0222 16.3767 60.9933 16.3564C60.9916 16.3552 60.9898 16.3539 60.9882 16.353C60.9773 16.3461 60.9658 16.3402 60.9535 16.336C60.9372 16.3304 60.92 16.3273 60.9021 16.3273H50.2227V11.7197C50.2227 11.7008 50.2246 11.6827 50.2279 11.6651C50.2313 11.6475 50.2366 11.6306 50.2434 11.6144C50.2835 11.5173 50.3781 11.4492 50.4883 11.4492H63.6076Z" fill="url(#paint1_linear_466_40)"/>
<path d="M78.1156 31.116C78.1156 31.2653 77.9965 31.3865 77.8498 31.3865H73.1879C73.148 31.3865 73.1102 31.3775 73.0762 31.3613C73.0166 31.3332 72.9686 31.2831 72.9428 31.2213C72.9361 31.2051 72.9308 31.1882 72.9275 31.1706C72.9241 31.153 72.9222 31.1346 72.9222 31.116V16.4898C72.9222 16.4842 72.9219 16.4786 72.9214 16.4732C72.9205 16.4624 72.9183 16.4518 72.9152 16.4416C72.9007 16.3938 72.8652 16.3559 72.8196 16.3382C72.8018 16.3314 72.7828 16.3274 72.7628 16.3274H68.0901C67.9434 16.3274 67.8242 16.2063 67.8242 16.057V11.7199C67.8242 11.6171 67.8802 11.5277 67.9633 11.482L67.9643 11.4815C67.9756 11.4752 67.9874 11.47 67.9996 11.4657C68.028 11.4551 68.0584 11.4492 68.0901 11.4492H78.1156V31.116Z" fill="url(#paint2_linear_466_40)"/>
<path d="M45.4935 11.4434C45.9799 11.4448 46.4331 11.5655 46.8213 11.7796C46.8747 11.809 46.9273 11.8404 46.978 11.8734C46.9831 11.8766 46.9884 11.88 46.9936 11.8834C47.0158 11.8978 47.0377 11.913 47.0594 11.9282C47.0738 11.9385 47.0883 11.949 47.1027 11.9596C47.6601 12.3705 48.0345 12.9993 48.0973 13.7464L48.0979 13.7471C48.0991 13.7633 48.0996 13.7794 48.0996 13.7956L48.0981 28.6378C48.1148 30.2134 46.8269 31.4043 45.3585 31.3847H34.4351C33.5901 31.396 32.8047 31.0064 32.2935 30.373C32.2738 30.3488 32.2547 30.324 32.236 30.2991C32.178 30.222 32.1241 30.1415 32.0743 30.0578C32.0649 30.0421 32.0558 30.0265 32.0469 30.0105C32.0346 29.989 32.0226 29.9669 32.0107 29.9449C32.0006 29.9261 31.9909 29.9072 31.9813 29.8882C31.9421 29.8098 31.9068 29.7295 31.875 29.6468C31.8565 29.5984 31.8391 29.5492 31.8232 29.4993C31.8189 29.4856 31.8146 29.4716 31.8105 29.4579C31.8012 29.4266 31.7922 29.395 31.7838 29.3629C31.7807 29.3514 31.7778 29.3397 31.7749 29.3282C31.7665 29.2937 31.7585 29.2587 31.7513 29.2234C31.7494 29.2141 31.7474 29.2048 31.7458 29.1955C31.7109 29.0161 31.6935 28.8296 31.6955 28.6373V17.2942H36.1486C36.2128 17.2942 36.2718 17.3173 36.3178 17.356C36.3243 17.3613 36.3306 17.3672 36.3366 17.3733C36.3587 17.3958 36.3768 17.4226 36.39 17.4517C36.4057 17.4861 36.4146 17.5243 36.4146 17.5648V26.4019C36.4146 26.4208 36.418 26.4388 36.4238 26.4556C36.4317 26.4786 36.4445 26.4994 36.4613 26.5165C36.4706 26.5261 36.4815 26.5345 36.4933 26.5415C36.4948 26.5425 36.4962 26.5435 36.4979 26.5444C36.5205 26.5569 36.5465 26.5641 36.574 26.5641H43.2189C43.2629 26.5641 43.3029 26.5459 43.3318 26.5165C43.3607 26.4872 43.3784 26.4465 43.3784 26.4017V16.4913C43.3784 16.4384 43.3537 16.3916 43.3151 16.3621C43.3087 16.3571 43.3022 16.3525 43.295 16.3486C43.2904 16.3462 43.2859 16.3437 43.2811 16.3417C43.2621 16.3336 43.241 16.3289 43.2189 16.3289H31.7072V13.793C31.7075 13.7776 31.708 13.7619 31.7091 13.7464C31.7602 13.1393 32.017 12.6103 32.4105 12.2129L32.4116 12.2116C32.4374 12.1857 32.4638 12.1602 32.4907 12.1355C32.52 12.1083 32.5501 12.0819 32.5809 12.0562C32.6021 12.0383 32.6237 12.0209 32.6456 12.0038C33.0968 11.6509 33.6767 11.4453 34.313 11.4434H45.4935Z" fill="url(#paint3_linear_466_40)"/>
<path d="M26.5593 11.4492C26.6424 11.4492 26.7206 11.4891 26.7705 11.5566L29.9986 15.9322L30.0982 16.0678C30.1772 16.1748 30.102 16.3274 29.9706 16.3274H13.832V13.6803C13.8321 12.3736 14.8248 11.46 16.3105 11.4492H26.5593Z" fill="url(#paint4_linear_466_40)"/>
<path d="M86.0102 11.4492C86.1389 11.4492 86.2145 11.5961 86.1416 11.7038L83.217 16.0145C83.0509 16.2514 82.9071 16.3274 82.6113 16.3274H79.0664V11.4492H86.0102Z" fill="url(#paint5_linear_466_40)"/>
<path d="M84.2306 6.75877V7.36783H83.9375V5.64941H84.8332C85.4169 5.64941 85.6551 5.81135 85.6551 6.1763C85.6551 6.44216 85.5265 6.5775 85.2573 6.63551C85.5193 6.69109 85.6241 6.83369 85.6241 7.15031V7.25907C85.6241 7.30498 85.6337 7.34849 85.6646 7.36783H85.3526C85.3216 7.35091 85.3144 7.30257 85.3144 7.25665V7.15031C85.3144 7.0488 85.3002 6.97146 85.2715 6.91587C85.212 6.79986 85.0786 6.75877 84.8332 6.75877H84.2306ZM84.819 6.50258C84.9238 6.50258 85.0191 6.49533 85.0976 6.48324C85.2573 6.45424 85.3526 6.3769 85.3526 6.21255V6.19322C85.3526 5.96361 85.1906 5.9056 84.8308 5.9056H84.2306V6.50258H84.819Z" fill="url(#paint6_linear_466_40)"/>
<path d="M82.6633 7.36783H81.0195V5.64941H82.6157V5.90319H81.303V6.3914H82.4132V6.64276H81.303V7.10438H82.6633V7.36783Z" fill="url(#paint7_linear_466_40)"/>
<path d="M79.3228 6.65243H78.1626V7.36783H77.8672V5.64941H78.1626V6.36724H79.3228V5.64941H79.6134V7.36783H79.3228V6.65243Z" fill="url(#paint8_linear_466_40)"/>
<path d="M75.9109 5.90802V7.36783H75.6106V5.90802H74.9531V5.64941H76.5993V5.90802H75.9109Z" fill="url(#paint9_linear_466_40)"/>
<path d="M73.7883 7.36783H72.1445V5.64941H73.7407V5.90319H72.428V6.3914H73.5382V6.64276H72.428V7.10438H73.7883V7.36783Z" fill="url(#paint10_linear_466_40)"/>
<path d="M70.5242 6.89953C70.5051 7.00104 70.4623 7.08805 70.4027 7.16539C70.2789 7.32007 70.0644 7.41433 69.7357 7.41433C69.5451 7.41433 69.3784 7.38049 69.2354 7.32007C68.9519 7.18956 68.7852 6.93578 68.7852 6.53458V6.52492C68.7852 6.33156 68.8257 6.16479 68.9162 6.02945C69.0925 5.75634 69.4069 5.61133 69.8024 5.61133C69.9787 5.61133 70.1311 5.63549 70.2693 5.67659C70.5433 5.76359 70.7219 5.94728 70.7791 6.24938H70.4456C70.3861 5.99078 70.174 5.88202 69.8095 5.88202C69.3616 5.88202 69.0901 6.08504 69.0901 6.52975V6.53217C69.0901 6.95028 69.3355 7.15572 69.7857 7.15572C69.9454 7.15572 70.0764 7.13639 70.1788 7.09772C70.3837 7.02037 70.4837 6.88745 70.5028 6.73277H69.7595V6.48383H70.7863V7.36841H70.5409L70.5242 6.89953Z" fill="url(#paint11_linear_466_40)"/>
<path d="M66.5147 7.41433C66.3193 7.41433 66.1478 7.38049 65.9953 7.32007C65.6928 7.18956 65.5117 6.93578 65.5117 6.52733V6.52008C65.5117 6.32673 65.5522 6.16238 65.6427 6.02704C65.819 5.75393 66.1287 5.61133 66.5147 5.61133C66.7053 5.61133 66.8768 5.64758 67.0292 5.71525C67.3365 5.85544 67.5248 6.12371 67.5248 6.51766V6.52975C67.5248 6.73035 67.4819 6.89228 67.3914 7.02521C67.2151 7.28865 66.9006 7.41433 66.5147 7.41433ZM66.5123 7.14364C66.6528 7.14364 66.7768 7.12188 66.8816 7.0808C67.0959 6.99862 67.2222 6.82219 67.2222 6.52733C67.2222 6.37507 67.1936 6.25422 67.134 6.15996C67.015 5.96903 66.8029 5.88202 66.5147 5.88202C66.0835 5.88202 65.8142 6.0802 65.8142 6.52492V6.52733C65.8142 6.66751 65.8429 6.7811 65.9024 6.87295C66.0215 7.05663 66.2335 7.14364 66.5123 7.14364Z" fill="url(#paint12_linear_466_40)"/>
<path d="M63.7741 5.90802V7.36783H63.4739V5.90802H62.8164V5.64941H64.4625V5.90802H63.7741Z" fill="url(#paint13_linear_466_40)"/>
<path d="M58.4109 6.02161V7.36782H58.125V5.64941H58.4251L59.552 6.89169L59.6187 6.97628V5.64941H59.9022V7.36782H59.6235L58.4752 6.10137L58.4109 6.02161Z" fill="url(#paint14_linear_466_40)"/>
<path d="M55.8037 7.41433C55.6083 7.41433 55.4368 7.38049 55.2844 7.32007C54.9818 7.18956 54.8008 6.93578 54.8008 6.52733V6.52008C54.8008 6.32673 54.8412 6.16238 54.9318 6.02704C55.1081 5.75393 55.4178 5.61133 55.8037 5.61133C55.9943 5.61133 56.1658 5.64758 56.3183 5.71525C56.6256 5.85544 56.8137 6.12371 56.8137 6.51766V6.52975C56.8137 6.73035 56.7709 6.89228 56.6803 7.02521C56.504 7.28865 56.1896 7.41433 55.8037 7.41433ZM55.8013 7.14364C55.9419 7.14364 56.0657 7.12188 56.1706 7.0808C56.385 6.99862 56.5112 6.82219 56.5112 6.52733C56.5112 6.37507 56.4826 6.25422 56.4231 6.15996C56.304 5.96903 56.0919 5.88202 55.8037 5.88202C55.3725 5.88202 55.1033 6.0802 55.1033 6.52492V6.52733C55.1033 6.66751 55.1319 6.7811 55.1914 6.87295C55.3106 7.05663 55.5226 7.14364 55.8013 7.14364Z" fill="url(#paint15_linear_466_40)"/>
<path d="M52.4688 7.36783V7.08988H52.9262V5.9177H52.4688V5.64941H53.6647V5.9177H53.2073V7.08988H53.6647V7.36783H52.4688Z" fill="url(#paint16_linear_466_40)"/>
<path d="M50.4124 7.41675C50.1885 7.41675 50.0098 7.395 49.8692 7.34666C49.5881 7.2524 49.4499 7.06388 49.4023 6.76177H49.7192C49.774 7.05905 49.9955 7.15572 50.4195 7.15572C50.8079 7.15572 50.9722 7.06388 50.9722 6.88503C50.9722 6.81494 50.9508 6.76418 50.9055 6.72793C50.815 6.66267 50.6197 6.64334 50.2647 6.62401C50.0884 6.61192 49.9479 6.59017 49.8288 6.55875C49.6 6.49833 49.4857 6.37023 49.4857 6.13821C49.4857 5.81676 49.7573 5.61133 50.3052 5.61133C50.8793 5.61133 51.1914 5.79743 51.2605 6.19622H50.9484C50.9079 5.94969 50.6768 5.8651 50.3005 5.8651C49.9312 5.8651 49.7811 5.95936 49.7811 6.13096C49.7811 6.18655 49.7978 6.23005 49.8335 6.26147C49.9002 6.32673 50.067 6.35332 50.3957 6.37265C50.5958 6.38232 50.7603 6.40648 50.8889 6.43791C51.1485 6.50316 51.2677 6.62642 51.2677 6.86327C51.2677 7.21372 51.0033 7.41675 50.4124 7.41675Z" fill="url(#paint17_linear_466_40)"/>
<path d="M47.3656 7.41675C47.1416 7.41675 46.9629 7.395 46.8224 7.34666C46.5413 7.2524 46.4031 7.06388 46.3555 6.76177H46.6723C46.7271 7.05905 46.9487 7.15572 47.3727 7.15572C47.761 7.15572 47.9254 7.06388 47.9254 6.88503C47.9254 6.81494 47.9039 6.76418 47.8587 6.72793C47.7681 6.66267 47.5728 6.64334 47.2178 6.62401C47.0416 6.61192 46.901 6.59017 46.7819 6.55875C46.5532 6.49833 46.4389 6.37023 46.4389 6.13821C46.4389 5.81676 46.7104 5.61133 47.2584 5.61133C47.8325 5.61133 48.1445 5.79743 48.2136 6.19622H47.9015C47.861 5.94969 47.63 5.8651 47.2536 5.8651C46.8844 5.8651 46.7342 5.95936 46.7342 6.13096C46.7342 6.18655 46.751 6.23005 46.7867 6.26147C46.8534 6.32673 47.0201 6.35332 47.3489 6.37265C47.549 6.38232 47.7134 6.40648 47.842 6.43791C48.1017 6.50316 48.2208 6.62642 48.2208 6.86327C48.2208 7.21372 47.9564 7.41675 47.3656 7.41675Z" fill="url(#paint18_linear_466_40)"/>
<path d="M44.7765 6.93762H43.7617L43.5497 7.36783H43.2305L44.1095 5.64941H44.4169L45.3102 7.36783H44.9957L44.7765 6.93762ZM44.262 5.92253L43.8832 6.69109H44.6527L44.262 5.92253Z" fill="url(#paint19_linear_466_40)"/>
<path d="M40.9391 6.82644V7.36783H40.6484V5.64941H41.5013C42.1112 5.64941 42.3542 5.83552 42.3542 6.24397C42.3542 6.62826 42.0826 6.82886 41.5347 6.82644H40.9391ZM40.9391 5.90319V6.57267H41.5204C41.8968 6.57267 42.0587 6.48808 42.0587 6.24155C42.0587 6.14971 42.0373 6.08204 41.9992 6.0337C41.9206 5.93703 41.7562 5.90319 41.5013 5.90319H40.9391Z" fill="url(#paint20_linear_466_40)"/>
<path d="M36.2384 6.75877V7.36783H35.9453V5.64941H36.841C37.4247 5.64941 37.6629 5.81135 37.6629 6.1763C37.6629 6.44216 37.5343 6.5775 37.2651 6.63551C37.5271 6.69109 37.6319 6.83369 37.6319 7.15031V7.25907C37.6319 7.30499 37.6415 7.34849 37.6725 7.36783H37.3604C37.3294 7.35091 37.3223 7.30257 37.3223 7.25665V7.15031C37.3223 7.0488 37.308 6.97146 37.2794 6.91587C37.2198 6.79986 37.0864 6.75877 36.841 6.75877H36.2384ZM36.8267 6.50258C36.9315 6.50258 37.0269 6.49533 37.1054 6.48324C37.2651 6.45424 37.3604 6.3769 37.3604 6.21255V6.19322C37.3604 5.96361 37.1984 5.9056 36.8387 5.9056H36.2384V6.50258H36.8267Z" fill="url(#paint21_linear_466_40)"/>
<path d="M33.6824 7.41617C33.0797 7.41617 32.7891 7.13098 32.7891 6.44458V5.64941H33.0964V6.43733C33.0964 6.93278 33.2797 7.12855 33.6848 7.12855C34.085 7.12855 34.2637 6.94003 34.2637 6.4349V5.64941H34.571V6.44216C34.571 6.67176 34.5352 6.85786 34.4685 7.00288C34.328 7.29048 34.066 7.41617 33.6824 7.41617Z" fill="url(#paint22_linear_466_40)"/>
<path d="M30.4912 7.41433C30.2958 7.41433 30.1243 7.38049 29.9719 7.32007C29.6693 7.18956 29.4883 6.93578 29.4883 6.52733V6.52008C29.4883 6.32673 29.5287 6.16238 29.6193 6.02704C29.7956 5.75393 30.1053 5.61133 30.4912 5.61133C30.6818 5.61133 30.8533 5.64758 31.0058 5.71525C31.3131 5.85544 31.5012 6.12371 31.5012 6.51766V6.52975C31.5012 6.73035 31.4584 6.89228 31.3678 7.02521C31.1915 7.28865 30.8771 7.41433 30.4912 7.41433ZM30.4888 7.14364C30.6294 7.14364 30.7532 7.12188 30.8581 7.0808C31.0725 6.99862 31.1987 6.82219 31.1987 6.52733C31.1987 6.37507 31.1701 6.25422 31.1106 6.15996C30.9915 5.96903 30.7794 5.88202 30.4912 5.88202C30.06 5.88202 29.7908 6.0802 29.7908 6.52492V6.52733C29.7908 6.66751 29.8194 6.7811 29.8789 6.87295C29.9981 7.05663 30.2101 7.14364 30.4888 7.14364Z" fill="url(#paint23_linear_466_40)"/>
<path d="M25.9851 5.90802V7.36783H25.6849V5.90802H25.0273V5.64941H26.6735V5.90802H25.9851Z" fill="url(#paint24_linear_466_40)"/>
<path d="M22.8817 7.41617C22.279 7.41617 21.9883 7.13098 21.9883 6.44458V5.64941H22.2957V6.43733C22.2957 6.93278 22.479 7.12855 22.884 7.12855C23.2843 7.12855 23.463 6.94003 23.463 6.4349V5.64941H23.7703V6.44216C23.7703 6.67176 23.7345 6.85786 23.6678 7.00288C23.5273 7.29048 23.2652 7.41617 22.8817 7.41617Z" fill="url(#paint25_linear_466_40)"/>
<path d="M19.6904 7.41433C19.4951 7.41433 19.3236 7.38049 19.1711 7.32007C18.8686 7.18956 18.6875 6.93578 18.6875 6.52733V6.52008C18.6875 6.32673 18.728 6.16238 18.8186 6.02704C18.9948 5.75393 19.3046 5.61133 19.6904 5.61133C19.8811 5.61133 20.0526 5.64758 20.205 5.71525C20.5124 5.85544 20.7005 6.12371 20.7005 6.51766V6.52975C20.7005 6.73035 20.6576 6.89228 20.5671 7.02521C20.3908 7.28865 20.0764 7.41433 19.6904 7.41433ZM19.688 7.14364C19.8286 7.14364 19.9525 7.12188 20.0574 7.0808C20.2718 6.99862 20.398 6.82219 20.398 6.52733C20.398 6.37507 20.3694 6.25422 20.3098 6.15996C20.1908 5.96903 19.9787 5.88202 19.6904 5.88202C19.2593 5.88202 18.9901 6.0802 18.9901 6.52492V6.52733C18.9901 6.66751 19.0187 6.7811 19.0782 6.87295C19.1974 7.05663 19.4093 7.14364 19.688 7.14364Z" fill="url(#paint26_linear_466_40)"/>
<path d="M17.0845 6.65243H15.9243V7.36783H15.6289V5.64941H15.9243V6.36724H17.0845V5.64941H17.3751V7.36783H17.0845V6.65243Z" fill="url(#paint27_linear_466_40)"/>
<path d="M13.4827 7.41675C13.2588 7.41675 13.0801 7.395 12.9396 7.34666C12.6585 7.2524 12.5203 7.06388 12.4727 6.76177H12.7895C12.8443 7.05905 13.0658 7.15572 13.4899 7.15572C13.8782 7.15572 14.0426 7.06388 14.0426 6.88503C14.0426 6.81494 14.0211 6.76418 13.9759 6.72793C13.8853 6.66267 13.69 6.64334 13.335 6.62401C13.1587 6.61192 13.0182 6.59017 12.8991 6.55875C12.6704 6.49833 12.556 6.37023 12.556 6.13821C12.556 5.81676 12.8276 5.61133 13.3755 5.61133C13.9497 5.61133 14.2617 5.79743 14.3308 6.19622H14.0187C13.9782 5.94969 13.7472 5.8651 13.3708 5.8651C13.0015 5.8651 12.8514 5.95936 12.8514 6.13096C12.8514 6.18655 12.8681 6.23005 12.9038 6.26147C12.9706 6.32673 13.1373 6.35332 13.4661 6.37265C13.6662 6.38232 13.8305 6.40648 13.9592 6.43791C14.2189 6.50316 14.338 6.62642 14.338 6.86327C14.338 7.21372 14.0735 7.41675 13.4827 7.41675Z" fill="url(#paint28_linear_466_40)"/>
<defs>
<linearGradient id="paint0_linear_466_40" x1="25.4557" y1="11.9705" x2="67.7561" y2="30.9225" gradientUnits="userSpaceOnUse">
<stop stop-color="#CEF5FF"/>
<stop offset="1" stop-color="#84E1FA"/>
</linearGradient>
<linearGradient id="paint1_linear_466_40" x1="25.4565" y1="11.9701" x2="67.7568" y2="30.9221" gradientUnits="userSpaceOnUse">
<stop stop-color="#CEF5FF"/>
<stop offset="1" stop-color="#84E1FA"/>
</linearGradient>
<linearGradient id="paint2_linear_466_40" x1="25.4548" y1="11.9701" x2="67.7551" y2="30.9221" gradientUnits="userSpaceOnUse">
<stop stop-color="#CEF5FF"/>
<stop offset="1" stop-color="#84E1FA"/>
</linearGradient>
<linearGradient id="paint3_linear_466_40" x1="25.4563" y1="11.9703" x2="67.7567" y2="30.9223" gradientUnits="userSpaceOnUse">
<stop stop-color="#CEF5FF"/>
<stop offset="1" stop-color="#84E1FA"/>
</linearGradient>
<linearGradient id="paint4_linear_466_40" x1="25.4554" y1="11.9701" x2="67.7557" y2="30.9221" gradientUnits="userSpaceOnUse">
<stop stop-color="#CEF5FF"/>
<stop offset="1" stop-color="#84E1FA"/>
</linearGradient>
<linearGradient id="paint5_linear_466_40" x1="25.4569" y1="11.9701" x2="67.7573" y2="30.9221" gradientUnits="userSpaceOnUse">
<stop stop-color="#CEF5FF"/>
<stop offset="1" stop-color="#84E1FA"/>
</linearGradient>
<linearGradient id="paint6_linear_466_40" x1="25.4548" y1="11.9702" x2="67.7552" y2="30.9223" gradientUnits="userSpaceOnUse">
<stop stop-color="#CEF5FF"/>
<stop offset="1" stop-color="#84E1FA"/>
</linearGradient>
<linearGradient id="paint7_linear_466_40" x1="25.4557" y1="11.9702" x2="67.756" y2="30.9222" gradientUnits="userSpaceOnUse">
<stop stop-color="#CEF5FF"/>
<stop offset="1" stop-color="#84E1FA"/>
</linearGradient>
<linearGradient id="paint8_linear_466_40" x1="25.4573" y1="11.9702" x2="67.7575" y2="30.9221" gradientUnits="userSpaceOnUse">
<stop stop-color="#CEF5FF"/>
<stop offset="1" stop-color="#84E1FA"/>
</linearGradient>
<linearGradient id="paint9_linear_466_40" x1="25.4579" y1="11.9702" x2="67.7583" y2="30.9223" gradientUnits="userSpaceOnUse">
<stop stop-color="#CEF5FF"/>
<stop offset="1" stop-color="#84E1FA"/>
</linearGradient>
<linearGradient id="paint10_linear_466_40" x1="25.4555" y1="11.9702" x2="67.7559" y2="30.9222" gradientUnits="userSpaceOnUse">
<stop stop-color="#CEF5FF"/>
<stop offset="1" stop-color="#84E1FA"/>
</linearGradient>
<linearGradient id="paint11_linear_466_40" x1="25.4568" y1="11.9708" x2="67.7572" y2="30.9228" gradientUnits="userSpaceOnUse">
<stop stop-color="#CEF5FF"/>
<stop offset="1" stop-color="#84E1FA"/>
</linearGradient>
<linearGradient id="paint12_linear_466_40" x1="25.4582" y1="11.9708" x2="67.7585" y2="30.9227" gradientUnits="userSpaceOnUse">
<stop stop-color="#CEF5FF"/>
<stop offset="1" stop-color="#84E1FA"/>
</linearGradient>
<linearGradient id="paint13_linear_466_40" x1="25.4569" y1="11.9702" x2="67.7572" y2="30.9222" gradientUnits="userSpaceOnUse">
<stop stop-color="#CEF5FF"/>
<stop offset="1" stop-color="#84E1FA"/>
</linearGradient>
<linearGradient id="paint14_linear_466_40" x1="25.4551" y1="11.9702" x2="67.7554" y2="30.9222" gradientUnits="userSpaceOnUse">
<stop stop-color="#CEF5FF"/>
<stop offset="1" stop-color="#84E1FA"/>
</linearGradient>
<linearGradient id="paint15_linear_466_40" x1="25.4567" y1="11.9708" x2="67.757" y2="30.9227" gradientUnits="userSpaceOnUse">
<stop stop-color="#CEF5FF"/>
<stop offset="1" stop-color="#84E1FA"/>
</linearGradient>
<linearGradient id="paint16_linear_466_40" x1="25.4548" y1="11.9702" x2="67.7551" y2="30.9222" gradientUnits="userSpaceOnUse">
<stop stop-color="#CEF5FF"/>
<stop offset="1" stop-color="#84E1FA"/>
</linearGradient>
<linearGradient id="paint17_linear_466_40" x1="25.4554" y1="11.9708" x2="67.7557" y2="30.9227" gradientUnits="userSpaceOnUse">
<stop stop-color="#CEF5FF"/>
<stop offset="1" stop-color="#84E1FA"/>
</linearGradient>
<linearGradient id="paint18_linear_466_40" x1="25.4576" y1="11.9708" x2="67.7579" y2="30.9228" gradientUnits="userSpaceOnUse">
<stop stop-color="#CEF5FF"/>
<stop offset="1" stop-color="#84E1FA"/>
</linearGradient>
<linearGradient id="paint19_linear_466_40" x1="25.4568" y1="11.9702" x2="67.7572" y2="30.9222" gradientUnits="userSpaceOnUse">
<stop stop-color="#CEF5FF"/>
<stop offset="1" stop-color="#84E1FA"/>
</linearGradient>
<linearGradient id="paint20_linear_466_40" x1="25.4561" y1="11.9702" x2="67.7565" y2="30.9222" gradientUnits="userSpaceOnUse">
<stop stop-color="#CEF5FF"/>
<stop offset="1" stop-color="#84E1FA"/>
</linearGradient>
<linearGradient id="paint21_linear_466_40" x1="25.4575" y1="11.9702" x2="67.7579" y2="30.9222" gradientUnits="userSpaceOnUse">
<stop stop-color="#CEF5FF"/>
<stop offset="1" stop-color="#84E1FA"/>
</linearGradient>
<linearGradient id="paint22_linear_466_40" x1="25.4581" y1="11.9702" x2="67.7584" y2="30.9222" gradientUnits="userSpaceOnUse">
<stop stop-color="#CEF5FF"/>
<stop offset="1" stop-color="#84E1FA"/>
</linearGradient>
<linearGradient id="paint23_linear_466_40" x1="25.4567" y1="11.9708" x2="67.7571" y2="30.9228" gradientUnits="userSpaceOnUse">
<stop stop-color="#CEF5FF"/>
<stop offset="1" stop-color="#84E1FA"/>
</linearGradient>
<linearGradient id="paint24_linear_466_40" x1="25.4548" y1="11.9702" x2="67.7551" y2="30.9221" gradientUnits="userSpaceOnUse">
<stop stop-color="#CEF5FF"/>
<stop offset="1" stop-color="#84E1FA"/>
</linearGradient>
<linearGradient id="paint25_linear_466_40" x1="25.4576" y1="11.9702" x2="67.758" y2="30.9222" gradientUnits="userSpaceOnUse">
<stop stop-color="#CEF5FF"/>
<stop offset="1" stop-color="#84E1FA"/>
</linearGradient>
<linearGradient id="paint26_linear_466_40" x1="25.4562" y1="11.9708" x2="67.7566" y2="30.9227" gradientUnits="userSpaceOnUse">
<stop stop-color="#CEF5FF"/>
<stop offset="1" stop-color="#84E1FA"/>
</linearGradient>
<linearGradient id="paint27_linear_466_40" x1="25.456" y1="11.9702" x2="67.7563" y2="30.9222" gradientUnits="userSpaceOnUse">
<stop stop-color="#CEF5FF"/>
<stop offset="1" stop-color="#84E1FA"/>
</linearGradient>
<linearGradient id="paint28_linear_466_40" x1="25.4551" y1="11.9708" x2="67.7554" y2="30.9227" gradientUnits="userSpaceOnUse">
<stop stop-color="#CEF5FF"/>
<stop offset="1" stop-color="#84E1FA"/>
</linearGradient>
</defs>
</svg>
